
<svg width="118px" height="61px" viewBox="0 0 118 61" version="1.1" xmlns="http://www.w3.org/2000/svg" xmlns:xlink="http://www.w3.org/1999/xlink">
    <!-- Generator: Sketch 49 (51002) - http://www.bohemiancoding.com/sketch -->
    <desc>Created with Sketch.</desc>
    <defs></defs>
    <g id="arrow" transform="translate(58.500000, 30.500000) rotate(-90.000000) translate(-58.500000, -30.500000) translate(28.000000, -29.000000)" fill="#3E63AA" fill-rule="nonzero">
        <path d="M9.23,22.64 C9.05122845,31.6093148 14.3171081,39.7951895 22.5533094,43.3512483 C30.7895108,46.9073072 40.3585743,45.1265615 46.7641921,38.8457473 C53.16981,32.564933 55.1384654,23.0327545 51.7451275,14.728188 C48.3517895,6.42362148 40.2710959,0.997718416 31.3,1 C19.230697,0.883444168 9.35090887,10.5707399 9.23,22.64 Z" id="Shape"></path>
        <path d="M24.95,112.91 L24.28,25.04 C24.2657094,23.0035861 25.3389182,21.1142382 27.095359,20.0836552 C28.8517998,19.0530722 31.0246275,19.0378243 32.795359,20.0436552 C34.5660904,21.0494861 35.6657094,22.9235861 35.68,24.96 L36.35,112.83 C36.3642906,114.866414 35.2910818,116.755762 33.534641,117.786345 C31.7782002,118.816928 29.6053725,118.832176 27.834641,117.826345 C26.0639096,116.820514 24.9642906,114.946414 24.95,112.91 Z" id="Shape"></path>
        <path d="M1.20568947e-13,82.41 C-0.00893847257,80.6927921 0.77753,79.0681624 2.13,78.01 C4.59125134,76.088891 8.13330424,76.4696617 10.13,78.87 L30.56,103.87 L50.62,78.61 C52.5756701,76.1649075 56.1226354,75.7215369 58.62,77.61 C59.8128316,78.5023586 60.5926694,79.8404089 60.7811528,81.3181183 C60.9696361,82.7958277 60.5506417,84.2867902 59.62,85.45 L35.14,116.28 C34.0548404,117.63481 32.4174114,118.4291 30.681641,118.442676 C28.9458707,118.456252 27.2962182,117.687671 26.19,116.35 L1.19,85.88 C0.410069746,84.8924239 -0.00970547964,83.6683734 -7.88925782e-13,82.41 Z" id="Shape"></path>
    </g>
</svg>