
<svg width="78px" height="78px" viewBox="0 0 78 78" version="1.1" xmlns="http://www.w3.org/2000/svg" xmlns:xlink="http://www.w3.org/1999/xlink">
    <!-- Generator: Sketch 49 (51002) - http://www.bohemiancoding.com/sketch -->
    <desc>Created with Sketch.</desc>
    <defs></defs>
    <path d="M66,39 C66,53.9116882 53.9116882,66 39,66 C24.0883118,66 12,53.9116882 12,39 L66,39 Z" id="center-bottom" fill="#0A5192"></path>
    <path d="M8,39 C8,56.1208272 21.8791728,70 39,70 L39,78 C17.4608948,78 0,60.5391052 0,39 L8,39 Z" id="border-bottom" fill="#0A5192"></path>
    <path d="M66,39 L12,39 C12,24.0883118 24.0883118,12 39,12 C53.9116882,12 66,24.0883118 66,39 Z" id="center-top" fill="#1F284E"></path>
    <path d="M8,39 L0,39 C0,17.4608948 17.4608948,0 39,0 L39,8 C21.8791728,8 8,21.8791728 8,39 Z" id="border-top" fill="#1F284E"></path>
</svg>