<?xml version="1.0" encoding="UTF-8" ?>
<!DOCTYPE svg PUBLIC "-//W3C//DTD SVG 1.1//EN" "http://www.w3.org/Graphics/SVG/1.1/DTD/svg11.dtd">
<svg width="243pt" height="42pt" viewBox="0 0 243 42" version="1.1" xmlns="http://www.w3.org/2000/svg">
<g id="#ff191fff">
<path fill="#ff191f" opacity="1.00" d=" M 69.70 0.00 L 76.09 0.00 C 81.27 0.26 86.62 0.34 91.43 2.51 C 93.25 3.65 94.75 1.54 96.35 0.92 C 109.28 0.60 122.22 0.67 135.15 0.86 C 136.29 1.70 137.25 3.15 138.87 2.88 C 170.67 3.03 202.47 3.10 234.27 3.18 C 234.64 2.64 235.37 1.55 235.73 1.00 C 238.18 1.66 240.63 2.34 243.00 3.26 L 243.00 9.98 C 238.63 11.01 235.01 8.35 231.08 7.19 C 201.01 7.08 170.93 7.11 140.85 7.19 C 137.72 6.91 135.17 9.26 132.09 9.26 C 119.85 9.31 107.61 9.45 95.38 9.17 C 95.05 8.50 94.40 7.16 94.07 6.48 C 91.89 7.23 89.28 7.93 88.52 10.42 C 85.19 18.72 82.79 27.38 79.50 35.70 C 78.47 38.77 74.85 38.97 72.13 38.95 C 65.45 38.83 58.73 39.38 52.08 38.70 C 49.70 38.31 49.79 35.37 50.43 33.61 C 52.89 25.65 55.64 17.77 58.18 9.84 C 57.52 9.15 56.86 8.47 56.19 7.79 C 50.26 8.53 44.28 9.93 39.14 13.12 C 32.29 17.15 27.55 23.68 22.80 29.87 C 18.33 35.98 12.13 41.70 4.14 42.00 L 0.21 42.00 C 0.43 40.23 0.64 38.45 0.83 36.68 C 4.23 36.33 7.85 35.90 10.58 33.65 C 16.23 29.21 19.76 22.78 24.55 17.53 C 30.12 11.04 37.53 6.04 45.87 3.98 C 53.79 2.45 61.53 -0.16 69.70 0.00 M 64.12 12.00 C 61.61 19.45 59.27 26.97 57.07 34.52 C 62.34 35.52 67.73 34.99 73.06 35.02 C 76.66 35.31 77.23 31.09 78.31 28.58 C 80.22 22.27 83.80 16.37 84.15 9.67 C 80.65 10.77 77.29 12.34 74.17 14.26 C 70.57 16.52 69.67 21.07 69.21 24.98 C 68.50 27.89 73.22 29.00 71.80 31.91 C 69.27 33.91 66.26 31.27 65.14 28.95 C 63.16 25.51 65.32 21.74 66.12 18.30 C 66.85 15.14 67.96 11.96 70.69 9.96 C 68.52 10.33 64.92 9.09 64.12 12.00 Z" />
</g>
</svg>
